<svg height='100px' width='100px'  fill="#000000" xmlns="http://www.w3.org/2000/svg" xmlns:xlink="http://www.w3.org/1999/xlink" version="1.1" x="0px" y="0px" viewBox="0 0 100 100" style="enable-background:new 0 0 100 100;" xml:space="preserve"><path d="M49,18.069c0,0.552,0.447,1,1,1s1-0.448,1-1v-4c0-0.552-0.447-1-1-1s-1,0.448-1,1V18.069z"></path><path d="M50,21.069c-0.553,0-1,0.448-1,1v4c0,0.552,0.447,1,1,1s1-0.448,1-1v-4C51,21.517,50.553,21.069,50,21.069z"></path><path d="M50,29.069c-0.553,0-1,0.448-1,1v4c0,0.552,0.447,1,1,1s1-0.448,1-1v-4C51,29.517,50.553,29.069,50,29.069z"></path><path d="M50,37.069c-0.553,0-1,0.448-1,1v4c0,0.552,0.447,1,1,1s1-0.448,1-1v-4C51,37.517,50.553,37.069,50,37.069z"></path><path d="M89,71.663V28.069c0-0.027-0.009-0.053-0.011-0.08c-0.002-0.03-0.007-0.059-0.012-0.088  c-0.021-0.117-0.054-0.231-0.112-0.332v0c0,0-0.001-0.001-0.001-0.001c-0.059-0.101-0.141-0.186-0.231-0.261  c-0.023-0.02-0.046-0.038-0.071-0.055c-0.021-0.015-0.038-0.034-0.061-0.047l-38-22c-0.023-0.014-0.049-0.019-0.073-0.03  c-0.028-0.014-0.056-0.024-0.085-0.035c-0.223-0.082-0.463-0.082-0.686,0c-0.029,0.011-0.057,0.021-0.085,0.035  c-0.023,0.011-0.05,0.017-0.073,0.03l-38,22c-0.022,0.013-0.039,0.032-0.061,0.047c-0.025,0.018-0.049,0.036-0.072,0.056  c-0.091,0.075-0.172,0.16-0.23,0.26c0,0-0.001,0.001-0.001,0.001v0c-0.059,0.101-0.092,0.215-0.112,0.332  c-0.005,0.03-0.01,0.059-0.012,0.089C11.009,28.017,11,28.042,11,28.069v44c0,0.357,0.19,0.687,0.499,0.865l23.723,13.734  c0.026,0.034,0.039,0.076,0.071,0.107c0.161,0.162,0.367,0.24,0.577,0.268l13.629,7.891c0.023,0.014,0.05,0.02,0.073,0.03  c0.028,0.014,0.056,0.024,0.085,0.035c0.111,0.041,0.226,0.069,0.343,0.069s0.231-0.028,0.343-0.069  c0.029-0.011,0.057-0.021,0.085-0.035c0.024-0.011,0.05-0.017,0.073-0.03l37.814-21.893c0.267-0.058,0.509-0.219,0.656-0.473  C89.14,72.279,89.128,71.947,89,71.663z M85.142,69.203c-0.478-0.276-1.09-0.113-1.366,0.366c-0.276,0.479-0.112,1.09,0.366,1.366  l1.913,1.104L51,92.335V51.802l1.965,1.134c0.157,0.091,0.329,0.134,0.499,0.134c0.346,0,0.682-0.18,0.867-0.5  c0.276-0.479,0.112-1.09-0.366-1.366l-1.967-1.136L87,29.804v40.473L85.142,69.203z M41.494,87.989L49,80.483v3.172l-5.497,5.497  L41.494,87.989z M37.694,85.79L49,74.483v3.172l-9.297,9.297L37.694,85.79z M33.894,83.589L49,68.483v3.172L35.902,84.753  L33.894,83.589z M26.294,79.189L49,56.483v3.172L28.303,80.353L26.294,79.189z M22.494,76.989l26.213-26.213  c0.064-0.064,0.101-0.143,0.145-0.217L49,50.646v3.01L24.503,78.152L22.494,76.989z M18.69,74.787  c0.005-0.005,0.012-0.006,0.017-0.011l26-26c0.135-0.135,0.205-0.301,0.247-0.473l2.152,1.246L20.703,75.952L18.69,74.787z   M13,71.493v-3.01l24.497-24.497l2.066,1.196c-0.096,0.047-0.19,0.1-0.271,0.18l-26,26c-0.064,0.064-0.101,0.142-0.144,0.217  L13,71.493z M13,29.804l3.706,2.146L13,35.655V29.804z M50,11.069c0.553,0,1-0.448,1-1V7.804l35.004,20.266L51,48.335v-2.266  c0-0.552-0.447-1-1-1s-1,0.448-1,1v2.266L13.996,28.069L49,7.804v2.266C49,10.622,49.447,11.069,50,11.069z M13,38.483l5.497-5.497  l2.066,1.196c-0.096,0.047-0.19,0.1-0.271,0.18L13,41.655V38.483z M13,44.483l8.707-8.707c0.212-0.211,0.299-0.493,0.281-0.77  l2.321,1.344c-0.005,0.005-0.012,0.006-0.017,0.011L13,47.655V44.483z M13,50.483l12.707-12.707  c0.135-0.135,0.205-0.301,0.247-0.473l2.152,1.246L13,53.655V50.483z M13,56.483l16.707-16.707c0.064-0.064,0.101-0.142,0.145-0.217  l2.055,1.189L13,59.655V56.483z M13,62.483l20.697-20.697l2.009,1.163L13,65.655V62.483z M40.707,46.776  c0.212-0.211,0.299-0.492,0.281-0.77l2.321,1.344c-0.005,0.006-0.012,0.007-0.017,0.012l-26,26  c-0.135,0.135-0.205,0.301-0.247,0.473l-2.151-1.246L40.707,46.776z M49,62.483v3.172L32.293,82.362  c-0.064,0.064-0.101,0.143-0.144,0.217l-2.056-1.189L49,62.483z M49,86.483v5.852l-3.706-2.146L49,86.483z"></path><path d="M81.678,67.203l-3.465-2c-0.478-0.276-1.09-0.112-1.366,0.366s-0.112,1.09,0.366,1.366l3.465,2  c0.157,0.091,0.329,0.134,0.499,0.134c0.346,0,0.682-0.18,0.867-0.5C82.32,68.091,82.156,67.479,81.678,67.203z"></path><path d="M74.75,63.203l-3.465-2c-0.479-0.276-1.09-0.112-1.366,0.366s-0.112,1.09,0.366,1.366l3.465,2  c0.157,0.091,0.329,0.134,0.499,0.134c0.346,0,0.682-0.18,0.867-0.5C75.393,64.091,75.229,63.479,74.75,63.203z"></path><path d="M67.821,59.203l-3.464-2c-0.478-0.276-1.09-0.112-1.366,0.366s-0.112,1.09,0.366,1.366l3.464,2  c0.157,0.091,0.329,0.134,0.499,0.134c0.346,0,0.682-0.18,0.867-0.5C68.464,60.091,68.3,59.479,67.821,59.203z"></path><path d="M60.893,55.203l-3.464-2c-0.479-0.276-1.09-0.112-1.366,0.366s-0.112,1.09,0.366,1.366l3.464,2  c0.157,0.091,0.329,0.134,0.499,0.134c0.346,0,0.682-0.18,0.867-0.5C61.535,56.091,61.371,55.479,60.893,55.203z"></path></svg>